<mxfile host="app.diagrams.net" agent="Mozilla/5.0 (Windows NT 10.0; Win64; x64) AppleWebKit/537.36 (KHTML, like Gecko) Chrome/131.0.0.0 Safari/537.36" version="25.0.3" pages="12">
  <diagram name="Página-1" id="KtxXnJcDS2-Wd14I2nBP">
    <mxGraphModel dx="1434" dy="822" grid="0" gridSize="10" guides="1" tooltips="1" connect="1" arrows="1" fold="1" page="1" pageScale="1" pageWidth="827" pageHeight="1169" math="0" shadow="0">
      <root>
        <mxCell id="0" />
        <mxCell id="1" parent="0" />
        <mxCell id="WWjQHwMvQdh4R1ZkWhhx-2" value="WEB&lt;div&gt;&lt;br&gt;&lt;/div&gt;&lt;div&gt;&lt;br&gt;&lt;/div&gt;&lt;div&gt;&lt;br&gt;&lt;/div&gt;&lt;div&gt;&lt;br&gt;&lt;/div&gt;&lt;div&gt;&lt;br&gt;&lt;/div&gt;&lt;div&gt;&lt;br&gt;&lt;/div&gt;" style="rounded=1;whiteSpace=wrap;html=1;" parent="1" vertex="1">
          <mxGeometry x="284" y="245" width="130" height="130" as="geometry" />
        </mxCell>
        <mxCell id="WWjQHwMvQdh4R1ZkWhhx-5" value="Cliente&lt;div&gt;&lt;br&gt;&lt;/div&gt;" style="text;html=1;align=center;verticalAlign=middle;resizable=0;points=[];autosize=1;strokeColor=none;fillColor=none;" parent="1" vertex="1">
          <mxGeometry x="170" y="260" width="60" height="40" as="geometry" />
        </mxCell>
        <mxCell id="WWjQHwMvQdh4R1ZkWhhx-7" value="CU-001" style="ellipse;whiteSpace=wrap;html=1;" parent="1" vertex="1">
          <mxGeometry x="293.5" y="290" width="111" height="50" as="geometry" />
        </mxCell>
        <mxCell id="WWjQHwMvQdh4R1ZkWhhx-9" value="Actor" style="shape=umlActor;verticalLabelPosition=bottom;verticalAlign=top;html=1;outlineConnect=0;" parent="1" vertex="1">
          <mxGeometry x="182.5" y="285" width="35" height="60" as="geometry" />
        </mxCell>
        <mxCell id="WWjQHwMvQdh4R1ZkWhhx-11" value="" style="endArrow=none;html=1;rounded=0;entryX=0;entryY=0.5;entryDx=0;entryDy=0;" parent="1" source="WWjQHwMvQdh4R1ZkWhhx-9" target="WWjQHwMvQdh4R1ZkWhhx-7" edge="1">
          <mxGeometry width="50" height="50" relative="1" as="geometry">
            <mxPoint x="390" y="450" as="sourcePoint" />
            <mxPoint x="440" y="400" as="targetPoint" />
          </mxGeometry>
        </mxCell>
      </root>
    </mxGraphModel>
  </diagram>
  <diagram id="wTTrR0Ofguvw0nUjP6wz" name="Página-2">
    <mxGraphModel dx="1434" dy="822" grid="0" gridSize="10" guides="1" tooltips="1" connect="1" arrows="1" fold="1" page="1" pageScale="1" pageWidth="827" pageHeight="1169" math="0" shadow="0">
      <root>
        <mxCell id="0" />
        <mxCell id="1" parent="0" />
        <mxCell id="IjVvfTq_Co005XlBYUcn-1" value="WEB&lt;div&gt;&lt;br&gt;&lt;/div&gt;&lt;div&gt;&lt;br&gt;&lt;/div&gt;&lt;div&gt;&lt;br&gt;&lt;/div&gt;&lt;div&gt;&lt;br&gt;&lt;/div&gt;&lt;div&gt;&lt;br&gt;&lt;/div&gt;&lt;div&gt;&lt;br&gt;&lt;/div&gt;" style="rounded=1;whiteSpace=wrap;html=1;" parent="1" vertex="1">
          <mxGeometry x="284" y="245" width="130" height="130" as="geometry" />
        </mxCell>
        <mxCell id="IjVvfTq_Co005XlBYUcn-2" value="Cliente&lt;div&gt;&lt;br&gt;&lt;/div&gt;" style="text;html=1;align=center;verticalAlign=middle;resizable=0;points=[];autosize=1;strokeColor=none;fillColor=none;" parent="1" vertex="1">
          <mxGeometry x="170" y="260" width="60" height="40" as="geometry" />
        </mxCell>
        <mxCell id="IjVvfTq_Co005XlBYUcn-3" value="CU-002" style="ellipse;whiteSpace=wrap;html=1;" parent="1" vertex="1">
          <mxGeometry x="293.5" y="290" width="111" height="50" as="geometry" />
        </mxCell>
        <mxCell id="IjVvfTq_Co005XlBYUcn-4" value="Actor" style="shape=umlActor;verticalLabelPosition=bottom;verticalAlign=top;html=1;outlineConnect=0;" parent="1" vertex="1">
          <mxGeometry x="182.5" y="285" width="35" height="60" as="geometry" />
        </mxCell>
        <mxCell id="IjVvfTq_Co005XlBYUcn-5" value="" style="endArrow=none;html=1;rounded=0;entryX=0;entryY=0.5;entryDx=0;entryDy=0;" parent="1" source="IjVvfTq_Co005XlBYUcn-4" target="IjVvfTq_Co005XlBYUcn-3" edge="1">
          <mxGeometry width="50" height="50" relative="1" as="geometry">
            <mxPoint x="390" y="450" as="sourcePoint" />
            <mxPoint x="440" y="400" as="targetPoint" />
          </mxGeometry>
        </mxCell>
      </root>
    </mxGraphModel>
  </diagram>
  <diagram id="zBEoPCtzFjnOQjoQuSg8" name="Página-3">
    <mxGraphModel grid="1" page="1" gridSize="10" guides="1" tooltips="1" connect="1" arrows="1" fold="1" pageScale="1" pageWidth="827" pageHeight="1169" math="0" shadow="0">
      <root>
        <mxCell id="0" />
        <mxCell id="1" parent="0" />
        <mxCell id="RvESNPCoCMoU6KEkl_LV-1" value="WEB&lt;div&gt;&lt;br&gt;&lt;/div&gt;&lt;div&gt;&lt;br&gt;&lt;/div&gt;&lt;div&gt;&lt;br&gt;&lt;/div&gt;&lt;div&gt;&lt;br&gt;&lt;/div&gt;&lt;div&gt;&lt;br&gt;&lt;/div&gt;&lt;div&gt;&lt;br&gt;&lt;/div&gt;" style="rounded=1;whiteSpace=wrap;html=1;" vertex="1" parent="1">
          <mxGeometry x="284" y="245" width="130" height="130" as="geometry" />
        </mxCell>
        <mxCell id="RvESNPCoCMoU6KEkl_LV-2" value="Cliente&lt;div&gt;&lt;br&gt;&lt;/div&gt;" style="text;html=1;align=center;verticalAlign=middle;resizable=0;points=[];autosize=1;strokeColor=none;fillColor=none;" vertex="1" parent="1">
          <mxGeometry x="170" y="260" width="60" height="40" as="geometry" />
        </mxCell>
        <mxCell id="RvESNPCoCMoU6KEkl_LV-3" value="CU-003" style="ellipse;whiteSpace=wrap;html=1;" vertex="1" parent="1">
          <mxGeometry x="293.5" y="290" width="111" height="50" as="geometry" />
        </mxCell>
        <mxCell id="RvESNPCoCMoU6KEkl_LV-4" value="Actor" style="shape=umlActor;verticalLabelPosition=bottom;verticalAlign=top;html=1;outlineConnect=0;" vertex="1" parent="1">
          <mxGeometry x="182.5" y="285" width="35" height="60" as="geometry" />
        </mxCell>
        <mxCell id="RvESNPCoCMoU6KEkl_LV-5" value="" style="endArrow=none;html=1;rounded=0;entryX=0;entryY=0.5;entryDx=0;entryDy=0;" edge="1" parent="1" source="RvESNPCoCMoU6KEkl_LV-4" target="RvESNPCoCMoU6KEkl_LV-3">
          <mxGeometry width="50" height="50" relative="1" as="geometry">
            <mxPoint x="390" y="450" as="sourcePoint" />
            <mxPoint x="440" y="400" as="targetPoint" />
          </mxGeometry>
        </mxCell>
      </root>
    </mxGraphModel>
  </diagram>
  <diagram id="4to_uImh1y-fShEkyj7O" name="Página-4">
    <mxGraphModel grid="1" page="1" gridSize="10" guides="1" tooltips="1" connect="1" arrows="1" fold="1" pageScale="1" pageWidth="827" pageHeight="1169" math="0" shadow="0">
      <root>
        <mxCell id="0" />
        <mxCell id="1" parent="0" />
        <mxCell id="qqEZsWDxz2YyULztA_A2-1" value="WEB&lt;div&gt;&lt;br&gt;&lt;/div&gt;&lt;div&gt;&lt;br&gt;&lt;/div&gt;&lt;div&gt;&lt;br&gt;&lt;/div&gt;&lt;div&gt;&lt;br&gt;&lt;/div&gt;&lt;div&gt;&lt;br&gt;&lt;/div&gt;&lt;div&gt;&lt;br&gt;&lt;/div&gt;" style="rounded=1;whiteSpace=wrap;html=1;" vertex="1" parent="1">
          <mxGeometry x="284" y="245" width="130" height="130" as="geometry" />
        </mxCell>
        <mxCell id="qqEZsWDxz2YyULztA_A2-2" value="Cliente&lt;div&gt;&lt;br&gt;&lt;/div&gt;" style="text;html=1;align=center;verticalAlign=middle;resizable=0;points=[];autosize=1;strokeColor=none;fillColor=none;" vertex="1" parent="1">
          <mxGeometry x="170" y="260" width="60" height="40" as="geometry" />
        </mxCell>
        <mxCell id="qqEZsWDxz2YyULztA_A2-3" value="CU-004" style="ellipse;whiteSpace=wrap;html=1;" vertex="1" parent="1">
          <mxGeometry x="293.5" y="290" width="111" height="50" as="geometry" />
        </mxCell>
        <mxCell id="qqEZsWDxz2YyULztA_A2-4" value="Actor" style="shape=umlActor;verticalLabelPosition=bottom;verticalAlign=top;html=1;outlineConnect=0;" vertex="1" parent="1">
          <mxGeometry x="182.5" y="285" width="35" height="60" as="geometry" />
        </mxCell>
        <mxCell id="qqEZsWDxz2YyULztA_A2-5" value="" style="endArrow=none;html=1;rounded=0;entryX=0;entryY=0.5;entryDx=0;entryDy=0;" edge="1" parent="1" source="qqEZsWDxz2YyULztA_A2-4" target="qqEZsWDxz2YyULztA_A2-3">
          <mxGeometry width="50" height="50" relative="1" as="geometry">
            <mxPoint x="390" y="450" as="sourcePoint" />
            <mxPoint x="440" y="400" as="targetPoint" />
          </mxGeometry>
        </mxCell>
      </root>
    </mxGraphModel>
  </diagram>
  <diagram id="e1O8ngUGdTOq9pMp18JF" name="Página-5">
    <mxGraphModel grid="1" page="1" gridSize="10" guides="1" tooltips="1" connect="1" arrows="1" fold="1" pageScale="1" pageWidth="827" pageHeight="1169" math="0" shadow="0">
      <root>
        <mxCell id="0" />
        <mxCell id="1" parent="0" />
        <mxCell id="vtZbVD4t7ukOGXUQ7OXc-1" value="WEB&lt;div&gt;&lt;br&gt;&lt;/div&gt;&lt;div&gt;&lt;br&gt;&lt;/div&gt;&lt;div&gt;&lt;br&gt;&lt;/div&gt;&lt;div&gt;&lt;br&gt;&lt;/div&gt;&lt;div&gt;&lt;br&gt;&lt;/div&gt;&lt;div&gt;&lt;br&gt;&lt;/div&gt;" style="rounded=1;whiteSpace=wrap;html=1;" vertex="1" parent="1">
          <mxGeometry x="284" y="245" width="130" height="130" as="geometry" />
        </mxCell>
        <mxCell id="vtZbVD4t7ukOGXUQ7OXc-2" value="Cliente&lt;div&gt;&lt;br&gt;&lt;/div&gt;" style="text;html=1;align=center;verticalAlign=middle;resizable=0;points=[];autosize=1;strokeColor=none;fillColor=none;" vertex="1" parent="1">
          <mxGeometry x="170" y="260" width="60" height="40" as="geometry" />
        </mxCell>
        <mxCell id="vtZbVD4t7ukOGXUQ7OXc-3" value="CU-005" style="ellipse;whiteSpace=wrap;html=1;" vertex="1" parent="1">
          <mxGeometry x="293.5" y="290" width="111" height="50" as="geometry" />
        </mxCell>
        <mxCell id="vtZbVD4t7ukOGXUQ7OXc-4" value="Actor" style="shape=umlActor;verticalLabelPosition=bottom;verticalAlign=top;html=1;outlineConnect=0;" vertex="1" parent="1">
          <mxGeometry x="182.5" y="285" width="35" height="60" as="geometry" />
        </mxCell>
        <mxCell id="vtZbVD4t7ukOGXUQ7OXc-5" value="" style="endArrow=none;html=1;rounded=0;entryX=0;entryY=0.5;entryDx=0;entryDy=0;" edge="1" parent="1" source="vtZbVD4t7ukOGXUQ7OXc-4" target="vtZbVD4t7ukOGXUQ7OXc-3">
          <mxGeometry width="50" height="50" relative="1" as="geometry">
            <mxPoint x="390" y="450" as="sourcePoint" />
            <mxPoint x="440" y="400" as="targetPoint" />
          </mxGeometry>
        </mxCell>
      </root>
    </mxGraphModel>
  </diagram>
  <diagram id="8U4DcjUTQEhSn-UBj87p" name="Página-6">
    <mxGraphModel dx="1434" dy="822" grid="1" gridSize="10" guides="1" tooltips="1" connect="1" arrows="1" fold="1" page="1" pageScale="1" pageWidth="827" pageHeight="1169" math="0" shadow="0">
      <root>
        <mxCell id="0" />
        <mxCell id="1" parent="0" />
        <mxCell id="35nFVa4n1_8f_xg2-rUo-1" value="WEB&lt;div&gt;&lt;br&gt;&lt;/div&gt;&lt;div&gt;&lt;br&gt;&lt;/div&gt;&lt;div&gt;&lt;br&gt;&lt;/div&gt;&lt;div&gt;&lt;br&gt;&lt;/div&gt;&lt;div&gt;&lt;br&gt;&lt;/div&gt;&lt;div&gt;&lt;br&gt;&lt;/div&gt;" style="rounded=1;whiteSpace=wrap;html=1;" parent="1" vertex="1">
          <mxGeometry x="284" y="245" width="130" height="130" as="geometry" />
        </mxCell>
        <mxCell id="35nFVa4n1_8f_xg2-rUo-2" value="Cliente&lt;div&gt;&lt;br&gt;&lt;/div&gt;" style="text;html=1;align=center;verticalAlign=middle;resizable=0;points=[];autosize=1;strokeColor=none;fillColor=none;" parent="1" vertex="1">
          <mxGeometry x="170" y="260" width="60" height="40" as="geometry" />
        </mxCell>
        <mxCell id="35nFVa4n1_8f_xg2-rUo-3" value="CU-006" style="ellipse;whiteSpace=wrap;html=1;" parent="1" vertex="1">
          <mxGeometry x="293.5" y="290" width="111" height="50" as="geometry" />
        </mxCell>
        <mxCell id="35nFVa4n1_8f_xg2-rUo-4" value="Actor" style="shape=umlActor;verticalLabelPosition=bottom;verticalAlign=top;html=1;outlineConnect=0;" parent="1" vertex="1">
          <mxGeometry x="182.5" y="285" width="35" height="60" as="geometry" />
        </mxCell>
        <mxCell id="35nFVa4n1_8f_xg2-rUo-5" value="" style="endArrow=none;html=1;rounded=0;entryX=0;entryY=0.5;entryDx=0;entryDy=0;" parent="1" source="35nFVa4n1_8f_xg2-rUo-4" target="35nFVa4n1_8f_xg2-rUo-3" edge="1">
          <mxGeometry width="50" height="50" relative="1" as="geometry">
            <mxPoint x="390" y="450" as="sourcePoint" />
            <mxPoint x="440" y="400" as="targetPoint" />
          </mxGeometry>
        </mxCell>
      </root>
    </mxGraphModel>
  </diagram>
  <diagram id="VrlCzplsW8-TybWHvwLW" name="Página-7">
    <mxGraphModel dx="819" dy="470" grid="0" gridSize="10" guides="1" tooltips="1" connect="1" arrows="1" fold="1" page="1" pageScale="1" pageWidth="827" pageHeight="1169" math="0" shadow="0">
      <root>
        <mxCell id="0" />
        <mxCell id="1" parent="0" />
        <mxCell id="JXfBw96atPbXt4RqflJE-1" value="" style="endArrow=none;html=1;rounded=0;" parent="1" edge="1">
          <mxGeometry width="50" height="50" relative="1" as="geometry">
            <mxPoint x="160" y="440" as="sourcePoint" />
            <mxPoint x="160" y="190" as="targetPoint" />
          </mxGeometry>
        </mxCell>
        <mxCell id="JXfBw96atPbXt4RqflJE-2" value="" style="endArrow=none;html=1;rounded=0;" parent="1" edge="1">
          <mxGeometry width="50" height="50" relative="1" as="geometry">
            <mxPoint x="350" y="440" as="sourcePoint" />
            <mxPoint x="350" y="190" as="targetPoint" />
          </mxGeometry>
        </mxCell>
        <mxCell id="JXfBw96atPbXt4RqflJE-3" value="" style="endArrow=none;html=1;rounded=0;" parent="1" edge="1">
          <mxGeometry width="50" height="50" relative="1" as="geometry">
            <mxPoint x="540" y="440" as="sourcePoint" />
            <mxPoint x="540" y="190" as="targetPoint" />
          </mxGeometry>
        </mxCell>
        <mxCell id="JXfBw96atPbXt4RqflJE-4" value="USUARIO" style="rounded=0;whiteSpace=wrap;html=1;" parent="1" vertex="1">
          <mxGeometry x="100" y="130" width="120" height="60" as="geometry" />
        </mxCell>
        <mxCell id="JXfBw96atPbXt4RqflJE-5" value="INTERFAZ DE USUARIO" style="rounded=0;whiteSpace=wrap;html=1;" parent="1" vertex="1">
          <mxGeometry x="294" y="130" width="120" height="60" as="geometry" />
        </mxCell>
        <mxCell id="JXfBw96atPbXt4RqflJE-6" value="" style="endArrow=classic;html=1;rounded=0;" parent="1" edge="1">
          <mxGeometry width="50" height="50" relative="1" as="geometry">
            <mxPoint x="160" y="260" as="sourcePoint" />
            <mxPoint x="350" y="260" as="targetPoint" />
          </mxGeometry>
        </mxCell>
        <mxCell id="JXfBw96atPbXt4RqflJE-7" value="Solicitar registrarse" style="text;html=1;align=center;verticalAlign=middle;resizable=0;points=[];autosize=1;strokeColor=none;fillColor=none;" parent="1" vertex="1">
          <mxGeometry x="190" y="230" width="130" height="30" as="geometry" />
        </mxCell>
        <mxCell id="JXfBw96atPbXt4RqflJE-9" value="Campos a rellenar" style="text;html=1;align=center;verticalAlign=middle;resizable=0;points=[];autosize=1;strokeColor=none;fillColor=none;" parent="1" vertex="1">
          <mxGeometry x="195" y="290" width="120" height="30" as="geometry" />
        </mxCell>
        <mxCell id="JXfBw96atPbXt4RqflJE-10" value="" style="endArrow=classic;html=1;rounded=0;" parent="1" edge="1">
          <mxGeometry width="50" height="50" relative="1" as="geometry">
            <mxPoint x="350" y="380" as="sourcePoint" />
            <mxPoint x="540" y="380" as="targetPoint" />
          </mxGeometry>
        </mxCell>
        <mxCell id="JXfBw96atPbXt4RqflJE-11" value="Enviar información de&lt;div&gt;nuevo cliente&lt;/div&gt;&lt;div&gt;registrarCliente()&lt;/div&gt;" style="text;html=1;align=center;verticalAlign=middle;resizable=0;points=[];autosize=1;strokeColor=none;fillColor=none;" parent="1" vertex="1">
          <mxGeometry x="378.5" y="320" width="134" height="55" as="geometry" />
        </mxCell>
        <mxCell id="JXfBw96atPbXt4RqflJE-12" value="INTERFAZ DE SERVICIO" style="rounded=0;whiteSpace=wrap;html=1;" parent="1" vertex="1">
          <mxGeometry x="480" y="130" width="120" height="60" as="geometry" />
        </mxCell>
        <mxCell id="JXfBw96atPbXt4RqflJE-15" value="" style="endArrow=classic;html=1;rounded=0;" parent="1" edge="1">
          <mxGeometry width="50" height="50" relative="1" as="geometry">
            <mxPoint x="160" y="360" as="sourcePoint" />
            <mxPoint x="350" y="360" as="targetPoint" />
          </mxGeometry>
        </mxCell>
        <mxCell id="JXfBw96atPbXt4RqflJE-16" value="Enviar información&lt;div&gt;necesaria&lt;/div&gt;" style="text;html=1;align=center;verticalAlign=middle;resizable=0;points=[];autosize=1;strokeColor=none;fillColor=none;" parent="1" vertex="1">
          <mxGeometry x="195" y="325" width="120" height="40" as="geometry" />
        </mxCell>
        <mxCell id="JXfBw96atPbXt4RqflJE-17" value="" style="endArrow=classic;html=1;rounded=0;" parent="1" edge="1">
          <mxGeometry width="50" height="50" relative="1" as="geometry">
            <mxPoint x="350" y="269.83" as="sourcePoint" />
            <mxPoint x="540" y="269.83" as="targetPoint" />
          </mxGeometry>
        </mxCell>
        <mxCell id="JXfBw96atPbXt4RqflJE-18" value="Pedir registrar cliente" style="text;html=1;align=center;verticalAlign=middle;resizable=0;points=[];autosize=1;strokeColor=none;fillColor=none;" parent="1" vertex="1">
          <mxGeometry x="380" y="240.00000000000003" width="131" height="26" as="geometry" />
        </mxCell>
        <mxCell id="JXfBw96atPbXt4RqflJE-20" value="Campos a rellenar" style="text;html=1;align=center;verticalAlign=middle;resizable=0;points=[];autosize=1;strokeColor=none;fillColor=none;" parent="1" vertex="1">
          <mxGeometry x="380" y="270" width="120" height="30" as="geometry" />
        </mxCell>
        <mxCell id="j497--XICnEq0JqD5k3J-2" value="" style="endArrow=none;dashed=1;html=1;dashPattern=1 3;strokeWidth=2;rounded=0;" parent="1" edge="1">
          <mxGeometry width="50" height="50" relative="1" as="geometry">
            <mxPoint x="350" y="300" as="sourcePoint" />
            <mxPoint x="540" y="300" as="targetPoint" />
          </mxGeometry>
        </mxCell>
        <mxCell id="j497--XICnEq0JqD5k3J-3" value="" style="endArrow=classic;html=1;rounded=0;" parent="1" edge="1">
          <mxGeometry width="50" height="50" relative="1" as="geometry">
            <mxPoint x="360" y="300" as="sourcePoint" />
            <mxPoint x="350" y="300" as="targetPoint" />
          </mxGeometry>
        </mxCell>
        <mxCell id="j497--XICnEq0JqD5k3J-5" value="" style="endArrow=classic;html=1;rounded=0;" parent="1" edge="1">
          <mxGeometry width="50" height="50" relative="1" as="geometry">
            <mxPoint x="170" y="320" as="sourcePoint" />
            <mxPoint x="160" y="320" as="targetPoint" />
          </mxGeometry>
        </mxCell>
        <mxCell id="j497--XICnEq0JqD5k3J-6" value="" style="endArrow=none;dashed=1;html=1;dashPattern=1 3;strokeWidth=2;rounded=0;" parent="1" edge="1">
          <mxGeometry width="50" height="50" relative="1" as="geometry">
            <mxPoint x="160" y="320" as="sourcePoint" />
            <mxPoint x="350" y="320" as="targetPoint" />
          </mxGeometry>
        </mxCell>
      </root>
    </mxGraphModel>
  </diagram>
  <diagram id="JSyfXO4Df0xSbHq0BxA9" name="Página-8">
    <mxGraphModel dx="819" dy="470" grid="0" gridSize="10" guides="1" tooltips="1" connect="1" arrows="1" fold="1" page="1" pageScale="1" pageWidth="827" pageHeight="1169" math="0" shadow="0">
      <root>
        <mxCell id="0" />
        <mxCell id="1" parent="0" />
        <mxCell id="FOWPxlQIwY1RgUz7JMM8-1" value="" style="endArrow=none;html=1;rounded=0;" parent="1" edge="1">
          <mxGeometry width="50" height="50" relative="1" as="geometry">
            <mxPoint x="160" y="520" as="sourcePoint" />
            <mxPoint x="160" y="190" as="targetPoint" />
          </mxGeometry>
        </mxCell>
        <mxCell id="FOWPxlQIwY1RgUz7JMM8-2" value="" style="endArrow=none;html=1;rounded=0;" parent="1" edge="1">
          <mxGeometry width="50" height="50" relative="1" as="geometry">
            <mxPoint x="350" y="520" as="sourcePoint" />
            <mxPoint x="350" y="190" as="targetPoint" />
          </mxGeometry>
        </mxCell>
        <mxCell id="FOWPxlQIwY1RgUz7JMM8-3" value="" style="endArrow=none;html=1;rounded=0;" parent="1" edge="1">
          <mxGeometry width="50" height="50" relative="1" as="geometry">
            <mxPoint x="540" y="520" as="sourcePoint" />
            <mxPoint x="539.5" y="190" as="targetPoint" />
          </mxGeometry>
        </mxCell>
        <mxCell id="FOWPxlQIwY1RgUz7JMM8-4" value="USUARIO" style="rounded=0;whiteSpace=wrap;html=1;" parent="1" vertex="1">
          <mxGeometry x="100" y="130" width="120" height="60" as="geometry" />
        </mxCell>
        <mxCell id="FOWPxlQIwY1RgUz7JMM8-5" value="INTERFAZ DE USUARIO" style="rounded=0;whiteSpace=wrap;html=1;" parent="1" vertex="1">
          <mxGeometry x="294" y="130" width="120" height="60" as="geometry" />
        </mxCell>
        <mxCell id="FOWPxlQIwY1RgUz7JMM8-6" value="" style="endArrow=classic;html=1;rounded=0;" parent="1" edge="1">
          <mxGeometry width="50" height="50" relative="1" as="geometry">
            <mxPoint x="160" y="260" as="sourcePoint" />
            <mxPoint x="350" y="260" as="targetPoint" />
          </mxGeometry>
        </mxCell>
        <mxCell id="FOWPxlQIwY1RgUz7JMM8-7" value="Solicitar visualización de&lt;div&gt;perfil&lt;/div&gt;" style="text;html=1;align=center;verticalAlign=middle;resizable=0;points=[];autosize=1;strokeColor=none;fillColor=none;" parent="1" vertex="1">
          <mxGeometry x="180" y="225" width="150" height="40" as="geometry" />
        </mxCell>
        <mxCell id="FOWPxlQIwY1RgUz7JMM8-12" value="INTERFAZ DE SERVICIO" style="rounded=0;whiteSpace=wrap;html=1;" parent="1" vertex="1">
          <mxGeometry x="480" y="130" width="120" height="60" as="geometry" />
        </mxCell>
        <mxCell id="FOWPxlQIwY1RgUz7JMM8-19" value="" style="endArrow=classic;html=1;rounded=0;" parent="1" edge="1">
          <mxGeometry width="50" height="50" relative="1" as="geometry">
            <mxPoint x="360" y="330" as="sourcePoint" />
            <mxPoint x="350" y="330" as="targetPoint" />
          </mxGeometry>
        </mxCell>
        <mxCell id="FOWPxlQIwY1RgUz7JMM8-23" value="" style="endArrow=classic;html=1;rounded=0;" parent="1" edge="1">
          <mxGeometry width="50" height="50" relative="1" as="geometry">
            <mxPoint x="350" y="289.83" as="sourcePoint" />
            <mxPoint x="540" y="289.83" as="targetPoint" />
          </mxGeometry>
        </mxCell>
        <mxCell id="FOWPxlQIwY1RgUz7JMM8-24" value="Pedir información del cliente&lt;div&gt;buscarCliente(id idCliente)&lt;/div&gt;" style="text;html=1;align=center;verticalAlign=middle;resizable=0;points=[];autosize=1;strokeColor=none;fillColor=none;" parent="1" vertex="1">
          <mxGeometry x="361" y="246" width="169" height="41" as="geometry" />
        </mxCell>
        <mxCell id="FOWPxlQIwY1RgUz7JMM8-25" value="" style="endArrow=none;dashed=1;html=1;dashPattern=1 3;strokeWidth=2;rounded=0;" parent="1" edge="1">
          <mxGeometry width="50" height="50" relative="1" as="geometry">
            <mxPoint x="360" y="330" as="sourcePoint" />
            <mxPoint x="540" y="330" as="targetPoint" />
          </mxGeometry>
        </mxCell>
        <mxCell id="FOWPxlQIwY1RgUz7JMM8-26" value="Información del cliente" style="text;html=1;align=center;verticalAlign=middle;resizable=0;points=[];autosize=1;strokeColor=none;fillColor=none;" parent="1" vertex="1">
          <mxGeometry x="375" y="300" width="140" height="30" as="geometry" />
        </mxCell>
        <mxCell id="FOWPxlQIwY1RgUz7JMM8-30" value="" style="endArrow=classic;html=1;rounded=0;" parent="1" edge="1">
          <mxGeometry width="50" height="50" relative="1" as="geometry">
            <mxPoint x="172" y="379" as="sourcePoint" />
            <mxPoint x="162" y="379" as="targetPoint" />
          </mxGeometry>
        </mxCell>
        <mxCell id="FOWPxlQIwY1RgUz7JMM8-31" value="" style="endArrow=none;dashed=1;html=1;dashPattern=1 3;strokeWidth=2;rounded=0;" parent="1" edge="1">
          <mxGeometry width="50" height="50" relative="1" as="geometry">
            <mxPoint x="168" y="380" as="sourcePoint" />
            <mxPoint x="348" y="380" as="targetPoint" />
          </mxGeometry>
        </mxCell>
        <mxCell id="FOWPxlQIwY1RgUz7JMM8-32" value="Información del cliente" style="text;html=1;align=center;verticalAlign=middle;resizable=0;points=[];autosize=1;strokeColor=none;fillColor=none;" parent="1" vertex="1">
          <mxGeometry x="188" y="350" width="140" height="30" as="geometry" />
        </mxCell>
        <mxCell id="FOWPxlQIwY1RgUz7JMM8-34" value="" style="endArrow=classic;html=1;rounded=0;" parent="1" edge="1">
          <mxGeometry width="50" height="50" relative="1" as="geometry">
            <mxPoint x="160" y="450" as="sourcePoint" />
            <mxPoint x="350" y="450" as="targetPoint" />
          </mxGeometry>
        </mxCell>
        <mxCell id="FOWPxlQIwY1RgUz7JMM8-35" value="Modificar información&lt;div&gt;&amp;nbsp;seleccionada&lt;/div&gt;" style="text;html=1;align=center;verticalAlign=middle;resizable=0;points=[];autosize=1;strokeColor=none;fillColor=none;" parent="1" vertex="1">
          <mxGeometry x="185" y="415" width="140" height="40" as="geometry" />
        </mxCell>
        <mxCell id="FOWPxlQIwY1RgUz7JMM8-38" value="" style="endArrow=classic;html=1;rounded=0;" parent="1" edge="1">
          <mxGeometry width="50" height="50" relative="1" as="geometry">
            <mxPoint x="350" y="484.8299999999999" as="sourcePoint" />
            <mxPoint x="540" y="484.8299999999999" as="targetPoint" />
          </mxGeometry>
        </mxCell>
        <mxCell id="FOWPxlQIwY1RgUz7JMM8-39" value="Enviar nueva información&lt;div&gt;editarCliente(Id idCliente)&lt;/div&gt;" style="text;html=1;align=center;verticalAlign=middle;resizable=0;points=[];autosize=1;strokeColor=none;fillColor=none;" parent="1" vertex="1">
          <mxGeometry x="369" y="440" width="153" height="41" as="geometry" />
        </mxCell>
      </root>
    </mxGraphModel>
  </diagram>
  <diagram id="2M9bAXieHyDEQ-Bgkghf" name="Página-9">
    <mxGraphModel dx="1195" dy="685" grid="0" gridSize="10" guides="1" tooltips="1" connect="1" arrows="1" fold="1" page="1" pageScale="1" pageWidth="827" pageHeight="1169" math="0" shadow="0">
      <root>
        <mxCell id="0" />
        <mxCell id="1" parent="0" />
        <mxCell id="2h3hUaBuntNVO97Qrs1L-1" value="" style="endArrow=none;html=1;rounded=0;" parent="1" edge="1">
          <mxGeometry width="50" height="50" relative="1" as="geometry">
            <mxPoint x="140" y="680" as="sourcePoint" />
            <mxPoint x="140" y="190" as="targetPoint" />
          </mxGeometry>
        </mxCell>
        <mxCell id="2h3hUaBuntNVO97Qrs1L-2" value="" style="endArrow=none;html=1;rounded=0;" parent="1" edge="1">
          <mxGeometry width="50" height="50" relative="1" as="geometry">
            <mxPoint x="330" y="680" as="sourcePoint" />
            <mxPoint x="330" y="190" as="targetPoint" />
          </mxGeometry>
        </mxCell>
        <mxCell id="2h3hUaBuntNVO97Qrs1L-3" value="" style="endArrow=none;html=1;rounded=0;" parent="1" edge="1">
          <mxGeometry width="50" height="50" relative="1" as="geometry">
            <mxPoint x="519.5" y="680" as="sourcePoint" />
            <mxPoint x="519.5" y="190" as="targetPoint" />
          </mxGeometry>
        </mxCell>
        <mxCell id="2h3hUaBuntNVO97Qrs1L-4" value="USUARIO" style="rounded=0;whiteSpace=wrap;html=1;" parent="1" vertex="1">
          <mxGeometry x="80" y="130" width="120" height="60" as="geometry" />
        </mxCell>
        <mxCell id="2h3hUaBuntNVO97Qrs1L-5" value="INTERFAZ DE USUARIO" style="rounded=0;whiteSpace=wrap;html=1;" parent="1" vertex="1">
          <mxGeometry x="274" y="130" width="120" height="60" as="geometry" />
        </mxCell>
        <mxCell id="2h3hUaBuntNVO97Qrs1L-6" value="" style="endArrow=classic;html=1;rounded=0;" parent="1" edge="1">
          <mxGeometry width="50" height="50" relative="1" as="geometry">
            <mxPoint x="140" y="260" as="sourcePoint" />
            <mxPoint x="330" y="260" as="targetPoint" />
          </mxGeometry>
        </mxCell>
        <mxCell id="2h3hUaBuntNVO97Qrs1L-7" value="Solicitar visualización&lt;div&gt;de perfil&lt;/div&gt;" style="text;html=1;align=center;verticalAlign=middle;resizable=0;points=[];autosize=1;strokeColor=none;fillColor=none;" parent="1" vertex="1">
          <mxGeometry x="165" y="225" width="140" height="40" as="geometry" />
        </mxCell>
        <mxCell id="2h3hUaBuntNVO97Qrs1L-8" value="INTERFAZ DE SERVICIO" style="rounded=0;whiteSpace=wrap;html=1;" parent="1" vertex="1">
          <mxGeometry x="460" y="130" width="120" height="60" as="geometry" />
        </mxCell>
        <mxCell id="2h3hUaBuntNVO97Qrs1L-13" value="" style="endArrow=classic;html=1;rounded=0;" parent="1" edge="1">
          <mxGeometry width="50" height="50" relative="1" as="geometry">
            <mxPoint x="340" y="335" as="sourcePoint" />
            <mxPoint x="330" y="335" as="targetPoint" />
          </mxGeometry>
        </mxCell>
        <mxCell id="2h3hUaBuntNVO97Qrs1L-14" value="" style="endArrow=classic;html=1;rounded=0;" parent="1" edge="1">
          <mxGeometry width="50" height="50" relative="1" as="geometry">
            <mxPoint x="330" y="294.83" as="sourcePoint" />
            <mxPoint x="520" y="294.83" as="targetPoint" />
          </mxGeometry>
        </mxCell>
        <mxCell id="2h3hUaBuntNVO97Qrs1L-15" value="Pedir información del cliente&lt;div&gt;buscarCliente(id idCliente)&lt;/div&gt;" style="text;html=1;align=center;verticalAlign=middle;resizable=0;points=[];autosize=1;strokeColor=none;fillColor=none;" parent="1" vertex="1">
          <mxGeometry x="341" y="258" width="169" height="41" as="geometry" />
        </mxCell>
        <mxCell id="2h3hUaBuntNVO97Qrs1L-16" value="" style="endArrow=none;dashed=1;html=1;dashPattern=1 3;strokeWidth=2;rounded=0;" parent="1" edge="1">
          <mxGeometry width="50" height="50" relative="1" as="geometry">
            <mxPoint x="340" y="335" as="sourcePoint" />
            <mxPoint x="520" y="335" as="targetPoint" />
          </mxGeometry>
        </mxCell>
        <mxCell id="2h3hUaBuntNVO97Qrs1L-17" value="Información del cliente" style="text;html=1;align=center;verticalAlign=middle;resizable=0;points=[];autosize=1;strokeColor=none;fillColor=none;" parent="1" vertex="1">
          <mxGeometry x="355" y="305" width="140" height="30" as="geometry" />
        </mxCell>
        <mxCell id="2h3hUaBuntNVO97Qrs1L-21" value="" style="endArrow=classic;html=1;rounded=0;" parent="1" edge="1">
          <mxGeometry width="50" height="50" relative="1" as="geometry">
            <mxPoint x="152" y="379" as="sourcePoint" />
            <mxPoint x="142" y="379" as="targetPoint" />
          </mxGeometry>
        </mxCell>
        <mxCell id="2h3hUaBuntNVO97Qrs1L-22" value="" style="endArrow=none;dashed=1;html=1;dashPattern=1 3;strokeWidth=2;rounded=0;" parent="1" edge="1">
          <mxGeometry width="50" height="50" relative="1" as="geometry">
            <mxPoint x="148" y="380" as="sourcePoint" />
            <mxPoint x="328" y="380" as="targetPoint" />
          </mxGeometry>
        </mxCell>
        <mxCell id="2h3hUaBuntNVO97Qrs1L-23" value="Información del cliente" style="text;html=1;align=center;verticalAlign=middle;resizable=0;points=[];autosize=1;strokeColor=none;fillColor=none;" parent="1" vertex="1">
          <mxGeometry x="168" y="350" width="140" height="30" as="geometry" />
        </mxCell>
        <mxCell id="2h3hUaBuntNVO97Qrs1L-24" value="" style="endArrow=classic;html=1;rounded=0;" parent="1" edge="1">
          <mxGeometry width="50" height="50" relative="1" as="geometry">
            <mxPoint x="140" y="450" as="sourcePoint" />
            <mxPoint x="330" y="450" as="targetPoint" />
          </mxGeometry>
        </mxCell>
        <mxCell id="2h3hUaBuntNVO97Qrs1L-25" value="Solicitar visualización&lt;div&gt;de pedidos&lt;/div&gt;" style="text;html=1;align=center;verticalAlign=middle;resizable=0;points=[];autosize=1;strokeColor=none;fillColor=none;" parent="1" vertex="1">
          <mxGeometry x="165" y="415" width="140" height="40" as="geometry" />
        </mxCell>
        <mxCell id="2h3hUaBuntNVO97Qrs1L-28" value="" style="endArrow=classic;html=1;rounded=0;" parent="1" edge="1">
          <mxGeometry width="50" height="50" relative="1" as="geometry">
            <mxPoint x="330" y="524.8299999999999" as="sourcePoint" />
            <mxPoint x="520" y="524.8299999999999" as="targetPoint" />
          </mxGeometry>
        </mxCell>
        <mxCell id="2h3hUaBuntNVO97Qrs1L-29" value="&lt;font style=&quot;font-size: 9px;&quot;&gt;Pedir información de&lt;/font&gt;&lt;div&gt;&lt;font style=&quot;font-size: 9px;&quot;&gt;pedidos&lt;/font&gt;&lt;/div&gt;&lt;div&gt;&lt;font style=&quot;font-size: 9px;&quot;&gt;buscarPedidosPorCliente(Integer idCliente)&lt;/font&gt;&lt;/div&gt;" style="text;html=1;align=center;verticalAlign=middle;resizable=0;points=[];autosize=1;strokeColor=none;fillColor=none;" parent="1" vertex="1">
          <mxGeometry x="334" y="468" width="191" height="55" as="geometry" />
        </mxCell>
        <mxCell id="2h3hUaBuntNVO97Qrs1L-32" value="" style="endArrow=classic;html=1;rounded=0;" parent="1" edge="1">
          <mxGeometry width="50" height="50" relative="1" as="geometry">
            <mxPoint x="340" y="575" as="sourcePoint" />
            <mxPoint x="330" y="575" as="targetPoint" />
          </mxGeometry>
        </mxCell>
        <mxCell id="2h3hUaBuntNVO97Qrs1L-33" value="" style="endArrow=none;dashed=1;html=1;dashPattern=1 3;strokeWidth=2;rounded=0;" parent="1" edge="1">
          <mxGeometry width="50" height="50" relative="1" as="geometry">
            <mxPoint x="340" y="575" as="sourcePoint" />
            <mxPoint x="520" y="575" as="targetPoint" />
          </mxGeometry>
        </mxCell>
        <mxCell id="2h3hUaBuntNVO97Qrs1L-34" value="Información de pedidos" style="text;html=1;align=center;verticalAlign=middle;resizable=0;points=[];autosize=1;strokeColor=none;fillColor=none;" parent="1" vertex="1">
          <mxGeometry x="350" y="545" width="150" height="30" as="geometry" />
        </mxCell>
        <mxCell id="2h3hUaBuntNVO97Qrs1L-38" value="" style="endArrow=classic;html=1;rounded=0;" parent="1" edge="1">
          <mxGeometry width="50" height="50" relative="1" as="geometry">
            <mxPoint x="150" y="620" as="sourcePoint" />
            <mxPoint x="140" y="620" as="targetPoint" />
          </mxGeometry>
        </mxCell>
        <mxCell id="2h3hUaBuntNVO97Qrs1L-39" value="" style="endArrow=none;dashed=1;html=1;dashPattern=1 3;strokeWidth=2;rounded=0;" parent="1" edge="1">
          <mxGeometry width="50" height="50" relative="1" as="geometry">
            <mxPoint x="150" y="620" as="sourcePoint" />
            <mxPoint x="330" y="620" as="targetPoint" />
          </mxGeometry>
        </mxCell>
        <mxCell id="2h3hUaBuntNVO97Qrs1L-40" value="Información de pedidos" style="text;html=1;align=center;verticalAlign=middle;resizable=0;points=[];autosize=1;strokeColor=none;fillColor=none;" parent="1" vertex="1">
          <mxGeometry x="160" y="590" width="150" height="30" as="geometry" />
        </mxCell>
      </root>
    </mxGraphModel>
  </diagram>
  <diagram id="kLXwVKd0PAxGtdxWFFzc" name="Página-10">
    <mxGraphModel dx="1195" dy="685" grid="0" gridSize="10" guides="1" tooltips="1" connect="1" arrows="1" fold="1" page="1" pageScale="1" pageWidth="827" pageHeight="1169" math="0" shadow="0">
      <root>
        <mxCell id="0" />
        <mxCell id="1" parent="0" />
        <mxCell id="yLIg1yVlepx4WkKggomR-1" value="" style="endArrow=none;html=1;rounded=0;" parent="1" edge="1">
          <mxGeometry width="50" height="50" relative="1" as="geometry">
            <mxPoint x="90" y="690" as="sourcePoint" />
            <mxPoint x="90" y="200" as="targetPoint" />
          </mxGeometry>
        </mxCell>
        <mxCell id="yLIg1yVlepx4WkKggomR-2" value="" style="endArrow=none;html=1;rounded=0;" parent="1" edge="1">
          <mxGeometry width="50" height="50" relative="1" as="geometry">
            <mxPoint x="280" y="690" as="sourcePoint" />
            <mxPoint x="280" y="200" as="targetPoint" />
          </mxGeometry>
        </mxCell>
        <mxCell id="yLIg1yVlepx4WkKggomR-3" value="" style="endArrow=none;html=1;rounded=0;" parent="1" edge="1">
          <mxGeometry width="50" height="50" relative="1" as="geometry">
            <mxPoint x="469.5" y="690" as="sourcePoint" />
            <mxPoint x="469.5" y="200" as="targetPoint" />
          </mxGeometry>
        </mxCell>
        <mxCell id="yLIg1yVlepx4WkKggomR-4" value="USUARIO" style="rounded=0;whiteSpace=wrap;html=1;" parent="1" vertex="1">
          <mxGeometry x="30" y="140" width="120" height="60" as="geometry" />
        </mxCell>
        <mxCell id="yLIg1yVlepx4WkKggomR-5" value="INTERFAZ DE USUARIO" style="rounded=0;whiteSpace=wrap;html=1;" parent="1" vertex="1">
          <mxGeometry x="224" y="140" width="120" height="60" as="geometry" />
        </mxCell>
        <mxCell id="yLIg1yVlepx4WkKggomR-6" value="" style="endArrow=classic;html=1;rounded=0;" parent="1" edge="1">
          <mxGeometry width="50" height="50" relative="1" as="geometry">
            <mxPoint x="90" y="270" as="sourcePoint" />
            <mxPoint x="280" y="270" as="targetPoint" />
          </mxGeometry>
        </mxCell>
        <mxCell id="yLIg1yVlepx4WkKggomR-7" value="Solicitar visualizar&lt;div&gt;productos deseados&lt;/div&gt;" style="text;html=1;align=center;verticalAlign=middle;resizable=0;points=[];autosize=1;strokeColor=none;fillColor=none;" parent="1" vertex="1">
          <mxGeometry x="120" y="235" width="130" height="40" as="geometry" />
        </mxCell>
        <mxCell id="yLIg1yVlepx4WkKggomR-8" value="INTERFAZ DE SERVICIO" style="rounded=0;whiteSpace=wrap;html=1;" parent="1" vertex="1">
          <mxGeometry x="410" y="140" width="120" height="60" as="geometry" />
        </mxCell>
        <mxCell id="yLIg1yVlepx4WkKggomR-11" value="" style="endArrow=classic;html=1;rounded=0;" parent="1" edge="1">
          <mxGeometry width="50" height="50" relative="1" as="geometry">
            <mxPoint x="280" y="279.83" as="sourcePoint" />
            <mxPoint x="470" y="279.83" as="targetPoint" />
          </mxGeometry>
        </mxCell>
        <mxCell id="yLIg1yVlepx4WkKggomR-15" value="Pedir información de productos&lt;div&gt;buscarTodosProductos()&lt;/div&gt;" style="text;html=1;align=center;verticalAlign=middle;resizable=0;points=[];autosize=1;strokeColor=none;fillColor=none;" parent="1" vertex="1">
          <mxGeometry x="283" y="241" width="184" height="41" as="geometry" />
        </mxCell>
        <mxCell id="yLIg1yVlepx4WkKggomR-18" value="" style="endArrow=classic;html=1;rounded=0;" parent="1" edge="1">
          <mxGeometry width="50" height="50" relative="1" as="geometry">
            <mxPoint x="288" y="350" as="sourcePoint" />
            <mxPoint x="278" y="350" as="targetPoint" />
          </mxGeometry>
        </mxCell>
        <mxCell id="yLIg1yVlepx4WkKggomR-19" value="" style="endArrow=none;dashed=1;html=1;dashPattern=1 3;strokeWidth=2;rounded=0;" parent="1" edge="1">
          <mxGeometry width="50" height="50" relative="1" as="geometry">
            <mxPoint x="290" y="350" as="sourcePoint" />
            <mxPoint x="470" y="350" as="targetPoint" />
          </mxGeometry>
        </mxCell>
        <mxCell id="yLIg1yVlepx4WkKggomR-20" value="Información de productos" style="text;html=1;align=center;verticalAlign=middle;resizable=0;points=[];autosize=1;strokeColor=none;fillColor=none;" parent="1" vertex="1">
          <mxGeometry x="295" y="320" width="160" height="30" as="geometry" />
        </mxCell>
        <mxCell id="yLIg1yVlepx4WkKggomR-21" value="" style="endArrow=classic;html=1;rounded=0;" parent="1" edge="1">
          <mxGeometry width="50" height="50" relative="1" as="geometry">
            <mxPoint x="102" y="389" as="sourcePoint" />
            <mxPoint x="92" y="389" as="targetPoint" />
          </mxGeometry>
        </mxCell>
        <mxCell id="yLIg1yVlepx4WkKggomR-22" value="" style="endArrow=none;dashed=1;html=1;dashPattern=1 3;strokeWidth=2;rounded=0;" parent="1" edge="1">
          <mxGeometry width="50" height="50" relative="1" as="geometry">
            <mxPoint x="98" y="390" as="sourcePoint" />
            <mxPoint x="278" y="390" as="targetPoint" />
          </mxGeometry>
        </mxCell>
        <mxCell id="yLIg1yVlepx4WkKggomR-23" value="Información de productos" style="text;html=1;align=center;verticalAlign=middle;resizable=0;points=[];autosize=1;strokeColor=none;fillColor=none;" parent="1" vertex="1">
          <mxGeometry x="108" y="360" width="160" height="30" as="geometry" />
        </mxCell>
        <mxCell id="yLIg1yVlepx4WkKggomR-24" value="" style="endArrow=classic;html=1;rounded=0;" parent="1" edge="1">
          <mxGeometry width="50" height="50" relative="1" as="geometry">
            <mxPoint x="90" y="460" as="sourcePoint" />
            <mxPoint x="280" y="460" as="targetPoint" />
          </mxGeometry>
        </mxCell>
        <mxCell id="yLIg1yVlepx4WkKggomR-25" value="Seleccionar producto&lt;div&gt;deseado y confirmar&lt;/div&gt;" style="text;html=1;align=center;verticalAlign=middle;resizable=0;points=[];autosize=1;strokeColor=none;fillColor=none;" parent="1" vertex="1">
          <mxGeometry x="115" y="420" width="140" height="40" as="geometry" />
        </mxCell>
        <mxCell id="yLIg1yVlepx4WkKggomR-26" value="" style="endArrow=classic;html=1;rounded=0;" parent="1" edge="1">
          <mxGeometry width="50" height="50" relative="1" as="geometry">
            <mxPoint x="280" y="499.83" as="sourcePoint" />
            <mxPoint x="470" y="499.83" as="targetPoint" />
          </mxGeometry>
        </mxCell>
        <mxCell id="yLIg1yVlepx4WkKggomR-27" value="Añadir producto a carrito&lt;div&gt;&lt;font style=&quot;font-size: 9px;&quot;&gt;añadirProductoAlCarrito(Producto idProducto)&lt;/font&gt;&lt;/div&gt;" style="text;html=1;align=center;verticalAlign=middle;resizable=0;points=[];autosize=1;strokeColor=none;fillColor=none;" parent="1" vertex="1">
          <mxGeometry x="274" y="460" width="202" height="41" as="geometry" />
        </mxCell>
        <mxCell id="Vpw5KLFmqTfgT5wrRaaL-3" value="" style="endArrow=classic;html=1;rounded=0;" parent="1" edge="1">
          <mxGeometry width="50" height="50" relative="1" as="geometry">
            <mxPoint x="294" y="549" as="sourcePoint" />
            <mxPoint x="284" y="549" as="targetPoint" />
          </mxGeometry>
        </mxCell>
        <mxCell id="Vpw5KLFmqTfgT5wrRaaL-4" value="" style="endArrow=none;dashed=1;html=1;dashPattern=1 3;strokeWidth=2;rounded=0;" parent="1" edge="1">
          <mxGeometry width="50" height="50" relative="1" as="geometry">
            <mxPoint x="290" y="550" as="sourcePoint" />
            <mxPoint x="470" y="550" as="targetPoint" />
          </mxGeometry>
        </mxCell>
        <mxCell id="Vpw5KLFmqTfgT5wrRaaL-8" value="Carrito con producto añadido" style="text;html=1;align=center;verticalAlign=middle;resizable=0;points=[];autosize=1;strokeColor=none;fillColor=none;" parent="1" vertex="1">
          <mxGeometry x="290" y="520" width="180" height="30" as="geometry" />
        </mxCell>
        <mxCell id="Vpw5KLFmqTfgT5wrRaaL-9" value="" style="endArrow=classic;html=1;rounded=0;" parent="1" edge="1">
          <mxGeometry width="50" height="50" relative="1" as="geometry">
            <mxPoint x="102" y="583" as="sourcePoint" />
            <mxPoint x="92" y="583" as="targetPoint" />
          </mxGeometry>
        </mxCell>
        <mxCell id="Vpw5KLFmqTfgT5wrRaaL-10" value="" style="endArrow=none;dashed=1;html=1;dashPattern=1 3;strokeWidth=2;rounded=0;" parent="1" edge="1">
          <mxGeometry width="50" height="50" relative="1" as="geometry">
            <mxPoint x="98" y="584" as="sourcePoint" />
            <mxPoint x="278" y="584" as="targetPoint" />
          </mxGeometry>
        </mxCell>
        <mxCell id="Vpw5KLFmqTfgT5wrRaaL-11" value="Carrito con producto añadido" style="text;html=1;align=center;verticalAlign=middle;resizable=0;points=[];autosize=1;strokeColor=none;fillColor=none;" parent="1" vertex="1">
          <mxGeometry x="98" y="554" width="180" height="30" as="geometry" />
        </mxCell>
        <mxCell id="Vpw5KLFmqTfgT5wrRaaL-12" value="" style="endArrow=classic;html=1;rounded=0;" parent="1" edge="1">
          <mxGeometry width="50" height="50" relative="1" as="geometry">
            <mxPoint x="90" y="615" as="sourcePoint" />
            <mxPoint x="280" y="615" as="targetPoint" />
          </mxGeometry>
        </mxCell>
        <mxCell id="Vpw5KLFmqTfgT5wrRaaL-13" value="Realizar pago de producto(s)" style="text;html=1;align=center;verticalAlign=middle;resizable=0;points=[];autosize=1;strokeColor=none;fillColor=none;" parent="1" vertex="1">
          <mxGeometry x="95" y="585" width="180" height="30" as="geometry" />
        </mxCell>
        <mxCell id="Vpw5KLFmqTfgT5wrRaaL-14" value="" style="endArrow=classic;html=1;rounded=0;" parent="1" edge="1">
          <mxGeometry width="50" height="50" relative="1" as="geometry">
            <mxPoint x="280" y="630" as="sourcePoint" />
            <mxPoint x="470" y="630" as="targetPoint" />
          </mxGeometry>
        </mxCell>
        <mxCell id="Vpw5KLFmqTfgT5wrRaaL-15" value="Enviar pedido&lt;div&gt;registrarPedido()&lt;/div&gt;" style="text;html=1;align=center;verticalAlign=middle;resizable=0;points=[];autosize=1;strokeColor=none;fillColor=none;" parent="1" vertex="1">
          <mxGeometry x="322" y="590" width="107" height="41" as="geometry" />
        </mxCell>
      </root>
    </mxGraphModel>
  </diagram>
  <diagram id="62brc2ZOCqn9rquB2Xdf" name="Página-11">
    <mxGraphModel dx="1195" dy="685" grid="0" gridSize="10" guides="1" tooltips="1" connect="1" arrows="1" fold="1" page="1" pageScale="1" pageWidth="827" pageHeight="1169" math="0" shadow="0">
      <root>
        <mxCell id="0" />
        <mxCell id="1" parent="0" />
        <mxCell id="S4MS6dcOLzoLjRJgFahg-1" value="" style="endArrow=none;html=1;rounded=0;" parent="1" edge="1">
          <mxGeometry width="50" height="50" relative="1" as="geometry">
            <mxPoint x="90" y="741" as="sourcePoint" />
            <mxPoint x="90" y="180" as="targetPoint" />
          </mxGeometry>
        </mxCell>
        <mxCell id="S4MS6dcOLzoLjRJgFahg-2" value="" style="endArrow=none;html=1;rounded=0;" parent="1" edge="1">
          <mxGeometry width="50" height="50" relative="1" as="geometry">
            <mxPoint x="280" y="730" as="sourcePoint" />
            <mxPoint x="280" y="180" as="targetPoint" />
          </mxGeometry>
        </mxCell>
        <mxCell id="S4MS6dcOLzoLjRJgFahg-3" value="" style="endArrow=none;html=1;rounded=0;" parent="1" edge="1">
          <mxGeometry width="50" height="50" relative="1" as="geometry">
            <mxPoint x="470" y="730" as="sourcePoint" />
            <mxPoint x="469.5" y="180" as="targetPoint" />
          </mxGeometry>
        </mxCell>
        <mxCell id="S4MS6dcOLzoLjRJgFahg-4" value="USUARIO" style="rounded=0;whiteSpace=wrap;html=1;" parent="1" vertex="1">
          <mxGeometry x="30" y="120" width="120" height="60" as="geometry" />
        </mxCell>
        <mxCell id="S4MS6dcOLzoLjRJgFahg-5" value="INTERFAZ DE USUARIO" style="rounded=0;whiteSpace=wrap;html=1;" parent="1" vertex="1">
          <mxGeometry x="224" y="120" width="120" height="60" as="geometry" />
        </mxCell>
        <mxCell id="S4MS6dcOLzoLjRJgFahg-6" value="" style="endArrow=classic;html=1;rounded=0;" parent="1" edge="1">
          <mxGeometry width="50" height="50" relative="1" as="geometry">
            <mxPoint x="90" y="250" as="sourcePoint" />
            <mxPoint x="280" y="250" as="targetPoint" />
          </mxGeometry>
        </mxCell>
        <mxCell id="S4MS6dcOLzoLjRJgFahg-7" value="Solicitar visualización de&amp;nbsp;&lt;div&gt;materiales para cocina&lt;/div&gt;&lt;div&gt;a medida&lt;/div&gt;" style="text;html=1;align=center;verticalAlign=middle;resizable=0;points=[];autosize=1;strokeColor=none;fillColor=none;" parent="1" vertex="1">
          <mxGeometry x="108" y="197" width="160" height="60" as="geometry" />
        </mxCell>
        <mxCell id="S4MS6dcOLzoLjRJgFahg-8" value="INTERFAZ DE SERVICIO" style="rounded=0;whiteSpace=wrap;html=1;" parent="1" vertex="1">
          <mxGeometry x="410" y="120" width="120" height="60" as="geometry" />
        </mxCell>
        <mxCell id="S4MS6dcOLzoLjRJgFahg-13" value="" style="endArrow=classic;html=1;rounded=0;" parent="1" edge="1">
          <mxGeometry width="50" height="50" relative="1" as="geometry">
            <mxPoint x="290" y="320" as="sourcePoint" />
            <mxPoint x="280" y="320" as="targetPoint" />
          </mxGeometry>
        </mxCell>
        <mxCell id="S4MS6dcOLzoLjRJgFahg-14" value="" style="endArrow=classic;html=1;rounded=0;" parent="1" edge="1">
          <mxGeometry width="50" height="50" relative="1" as="geometry">
            <mxPoint x="280" y="279.83" as="sourcePoint" />
            <mxPoint x="470" y="279.83" as="targetPoint" />
          </mxGeometry>
        </mxCell>
        <mxCell id="S4MS6dcOLzoLjRJgFahg-15" value="Pedir información de materiales&lt;div&gt;buscarTodosProductos()&lt;/div&gt;" style="text;html=1;align=center;verticalAlign=middle;resizable=0;points=[];autosize=1;strokeColor=none;fillColor=none;" parent="1" vertex="1">
          <mxGeometry x="282" y="242" width="187" height="41" as="geometry" />
        </mxCell>
        <mxCell id="S4MS6dcOLzoLjRJgFahg-16" value="" style="endArrow=none;dashed=1;html=1;dashPattern=1 3;strokeWidth=2;rounded=0;" parent="1" edge="1">
          <mxGeometry width="50" height="50" relative="1" as="geometry">
            <mxPoint x="290" y="320" as="sourcePoint" />
            <mxPoint x="470" y="320" as="targetPoint" />
          </mxGeometry>
        </mxCell>
        <mxCell id="S4MS6dcOLzoLjRJgFahg-17" value="Información de materiales" style="text;html=1;align=center;verticalAlign=middle;resizable=0;points=[];autosize=1;strokeColor=none;fillColor=none;" parent="1" vertex="1">
          <mxGeometry x="295" y="290" width="160" height="30" as="geometry" />
        </mxCell>
        <mxCell id="S4MS6dcOLzoLjRJgFahg-21" value="" style="endArrow=classic;html=1;rounded=0;" parent="1" edge="1">
          <mxGeometry width="50" height="50" relative="1" as="geometry">
            <mxPoint x="102" y="369" as="sourcePoint" />
            <mxPoint x="92" y="369" as="targetPoint" />
          </mxGeometry>
        </mxCell>
        <mxCell id="S4MS6dcOLzoLjRJgFahg-22" value="" style="endArrow=none;dashed=1;html=1;dashPattern=1 3;strokeWidth=2;rounded=0;" parent="1" edge="1">
          <mxGeometry width="50" height="50" relative="1" as="geometry">
            <mxPoint x="98" y="370" as="sourcePoint" />
            <mxPoint x="278" y="370" as="targetPoint" />
          </mxGeometry>
        </mxCell>
        <mxCell id="S4MS6dcOLzoLjRJgFahg-23" value="Información de materiales" style="text;html=1;align=center;verticalAlign=middle;resizable=0;points=[];autosize=1;strokeColor=none;fillColor=none;" parent="1" vertex="1">
          <mxGeometry x="108" y="340" width="160" height="30" as="geometry" />
        </mxCell>
        <mxCell id="S4MS6dcOLzoLjRJgFahg-24" value="" style="endArrow=classic;html=1;rounded=0;" parent="1" edge="1">
          <mxGeometry width="50" height="50" relative="1" as="geometry">
            <mxPoint x="90" y="440" as="sourcePoint" />
            <mxPoint x="280" y="440" as="targetPoint" />
          </mxGeometry>
        </mxCell>
        <mxCell id="S4MS6dcOLzoLjRJgFahg-25" value="Seleccionar materiales&lt;div&gt;&amp;nbsp;deseados&lt;/div&gt;" style="text;html=1;align=center;verticalAlign=middle;resizable=0;points=[];autosize=1;strokeColor=none;fillColor=none;" parent="1" vertex="1">
          <mxGeometry x="115" y="405" width="140" height="40" as="geometry" />
        </mxCell>
        <mxCell id="S4MS6dcOLzoLjRJgFahg-26" value="" style="endArrow=classic;html=1;rounded=0;" parent="1" edge="1">
          <mxGeometry width="50" height="50" relative="1" as="geometry">
            <mxPoint x="280" y="479.83" as="sourcePoint" />
            <mxPoint x="470" y="479.83" as="targetPoint" />
          </mxGeometry>
        </mxCell>
        <mxCell id="S4MS6dcOLzoLjRJgFahg-27" value="Enviar materiales seleccionados&lt;div&gt;añadirMaterialCocina()&lt;/div&gt;" style="text;html=1;align=center;verticalAlign=middle;resizable=0;points=[];autosize=1;strokeColor=none;fillColor=none;" parent="1" vertex="1">
          <mxGeometry x="280" y="442" width="190" height="41" as="geometry" />
        </mxCell>
        <mxCell id="S4MS6dcOLzoLjRJgFahg-30" value="" style="endArrow=classic;html=1;rounded=0;" parent="1" edge="1">
          <mxGeometry width="50" height="50" relative="1" as="geometry">
            <mxPoint x="290" y="530" as="sourcePoint" />
            <mxPoint x="280" y="530" as="targetPoint" />
          </mxGeometry>
        </mxCell>
        <mxCell id="S4MS6dcOLzoLjRJgFahg-31" value="" style="endArrow=none;dashed=1;html=1;dashPattern=1 3;strokeWidth=2;rounded=0;" parent="1" edge="1">
          <mxGeometry width="50" height="50" relative="1" as="geometry">
            <mxPoint x="290" y="530" as="sourcePoint" />
            <mxPoint x="470" y="530" as="targetPoint" />
          </mxGeometry>
        </mxCell>
        <mxCell id="S4MS6dcOLzoLjRJgFahg-32" value="Representación de cocina&amp;nbsp;&lt;div&gt;con material&lt;/div&gt;" style="text;html=1;align=center;verticalAlign=middle;resizable=0;points=[];autosize=1;strokeColor=none;fillColor=none;" parent="1" vertex="1">
          <mxGeometry x="290" y="490" width="170" height="40" as="geometry" />
        </mxCell>
        <mxCell id="S4MS6dcOLzoLjRJgFahg-62" value="" style="endArrow=classic;html=1;rounded=0;" parent="1" edge="1">
          <mxGeometry width="50" height="50" relative="1" as="geometry">
            <mxPoint x="103" y="565" as="sourcePoint" />
            <mxPoint x="93" y="565" as="targetPoint" />
          </mxGeometry>
        </mxCell>
        <mxCell id="S4MS6dcOLzoLjRJgFahg-63" value="" style="endArrow=none;dashed=1;html=1;dashPattern=1 3;strokeWidth=2;rounded=0;" parent="1" edge="1">
          <mxGeometry width="50" height="50" relative="1" as="geometry">
            <mxPoint x="103" y="565" as="sourcePoint" />
            <mxPoint x="283" y="565" as="targetPoint" />
          </mxGeometry>
        </mxCell>
        <mxCell id="S4MS6dcOLzoLjRJgFahg-65" value="Representación de cocina&amp;nbsp;&lt;div&gt;con material&lt;/div&gt;" style="text;html=1;align=center;verticalAlign=middle;resizable=0;points=[];autosize=1;strokeColor=none;fillColor=none;" parent="1" vertex="1">
          <mxGeometry x="98" y="520" width="170" height="40" as="geometry" />
        </mxCell>
        <mxCell id="4BkVtwU66zKN_0cIhfaH-1" value="" style="endArrow=classic;html=1;rounded=0;" parent="1" edge="1">
          <mxGeometry width="50" height="50" relative="1" as="geometry">
            <mxPoint x="90" y="640" as="sourcePoint" />
            <mxPoint x="280" y="640" as="targetPoint" />
          </mxGeometry>
        </mxCell>
        <mxCell id="4BkVtwU66zKN_0cIhfaH-2" value="Confirmar cocina con materiales&lt;div&gt;deseados&lt;/div&gt;" style="text;html=1;align=center;verticalAlign=middle;resizable=0;points=[];autosize=1;strokeColor=none;fillColor=none;" parent="1" vertex="1">
          <mxGeometry x="88" y="600" width="200" height="40" as="geometry" />
        </mxCell>
        <mxCell id="4BkVtwU66zKN_0cIhfaH-3" value="" style="endArrow=classic;html=1;rounded=0;" parent="1" edge="1">
          <mxGeometry width="50" height="50" relative="1" as="geometry">
            <mxPoint x="280" y="660" as="sourcePoint" />
            <mxPoint x="470" y="660" as="targetPoint" />
          </mxGeometry>
        </mxCell>
        <mxCell id="4BkVtwU66zKN_0cIhfaH-4" value="Enviar cocina con materiales&lt;div&gt;deseados&lt;/div&gt;&lt;div&gt;guardarCocina()&lt;/div&gt;" style="text;html=1;align=center;verticalAlign=middle;resizable=0;points=[];autosize=1;strokeColor=none;fillColor=none;" parent="1" vertex="1">
          <mxGeometry x="293" y="608" width="171" height="55" as="geometry" />
        </mxCell>
      </root>
    </mxGraphModel>
  </diagram>
  <diagram id="hUa-AisP9QO7ejGjYaLB" name="Página-12">
    <mxGraphModel dx="1434" dy="822" grid="0" gridSize="10" guides="1" tooltips="1" connect="1" arrows="1" fold="1" page="1" pageScale="1" pageWidth="827" pageHeight="1169" math="0" shadow="0">
      <root>
        <mxCell id="0" />
        <mxCell id="1" parent="0" />
        <mxCell id="RvpLwpYk2StaqcjYeiUu-1" value="" style="endArrow=none;html=1;rounded=0;" parent="1" edge="1">
          <mxGeometry width="50" height="50" relative="1" as="geometry">
            <mxPoint x="90" y="880" as="sourcePoint" />
            <mxPoint x="90" y="180" as="targetPoint" />
          </mxGeometry>
        </mxCell>
        <mxCell id="RvpLwpYk2StaqcjYeiUu-2" value="" style="endArrow=none;html=1;rounded=0;" parent="1" edge="1">
          <mxGeometry width="50" height="50" relative="1" as="geometry">
            <mxPoint x="280" y="880" as="sourcePoint" />
            <mxPoint x="280" y="180" as="targetPoint" />
          </mxGeometry>
        </mxCell>
        <mxCell id="RvpLwpYk2StaqcjYeiUu-3" value="" style="endArrow=none;html=1;rounded=0;" parent="1" edge="1">
          <mxGeometry width="50" height="50" relative="1" as="geometry">
            <mxPoint x="470.5" y="880" as="sourcePoint" />
            <mxPoint x="470" y="180" as="targetPoint" />
          </mxGeometry>
        </mxCell>
        <mxCell id="RvpLwpYk2StaqcjYeiUu-4" value="USUARIO" style="rounded=0;whiteSpace=wrap;html=1;" parent="1" vertex="1">
          <mxGeometry x="30" y="120" width="120" height="60" as="geometry" />
        </mxCell>
        <mxCell id="RvpLwpYk2StaqcjYeiUu-5" value="INTERFAZ DE USUARIO" style="rounded=0;whiteSpace=wrap;html=1;" parent="1" vertex="1">
          <mxGeometry x="224" y="120" width="120" height="60" as="geometry" />
        </mxCell>
        <mxCell id="RvpLwpYk2StaqcjYeiUu-6" value="" style="endArrow=classic;html=1;rounded=0;" parent="1" edge="1">
          <mxGeometry width="50" height="50" relative="1" as="geometry">
            <mxPoint x="90" y="250" as="sourcePoint" />
            <mxPoint x="280" y="250" as="targetPoint" />
          </mxGeometry>
        </mxCell>
        <mxCell id="RvpLwpYk2StaqcjYeiUu-7" value="Solicitar visualización de&amp;nbsp;&lt;div&gt;armarios&lt;/div&gt;" style="text;html=1;align=center;verticalAlign=middle;resizable=0;points=[];autosize=1;strokeColor=none;fillColor=none;" parent="1" vertex="1">
          <mxGeometry x="108" y="210" width="160" height="40" as="geometry" />
        </mxCell>
        <mxCell id="RvpLwpYk2StaqcjYeiUu-8" value="INTERFAZ DE SERVICIO" style="rounded=0;whiteSpace=wrap;html=1;" parent="1" vertex="1">
          <mxGeometry x="410" y="120" width="120" height="60" as="geometry" />
        </mxCell>
        <mxCell id="RvpLwpYk2StaqcjYeiUu-13" value="" style="endArrow=classic;html=1;rounded=0;" parent="1" edge="1">
          <mxGeometry width="50" height="50" relative="1" as="geometry">
            <mxPoint x="290" y="520" as="sourcePoint" />
            <mxPoint x="280" y="520" as="targetPoint" />
          </mxGeometry>
        </mxCell>
        <mxCell id="RvpLwpYk2StaqcjYeiUu-14" value="" style="endArrow=classic;html=1;rounded=0;" parent="1" edge="1">
          <mxGeometry width="50" height="50" relative="1" as="geometry">
            <mxPoint x="280" y="479.83" as="sourcePoint" />
            <mxPoint x="470" y="479.83" as="targetPoint" />
          </mxGeometry>
        </mxCell>
        <mxCell id="RvpLwpYk2StaqcjYeiUu-15" value="Pedir información de materiales&lt;div&gt;buscarTodosProductos()&lt;/div&gt;" style="text;html=1;align=center;verticalAlign=middle;resizable=0;points=[];autosize=1;strokeColor=none;fillColor=none;" parent="1" vertex="1">
          <mxGeometry x="282" y="442" width="187" height="41" as="geometry" />
        </mxCell>
        <mxCell id="RvpLwpYk2StaqcjYeiUu-16" value="" style="endArrow=none;dashed=1;html=1;dashPattern=1 3;strokeWidth=2;rounded=0;" parent="1" edge="1">
          <mxGeometry width="50" height="50" relative="1" as="geometry">
            <mxPoint x="290" y="520" as="sourcePoint" />
            <mxPoint x="470" y="520" as="targetPoint" />
          </mxGeometry>
        </mxCell>
        <mxCell id="RvpLwpYk2StaqcjYeiUu-17" value="Información de materiales" style="text;html=1;align=center;verticalAlign=middle;resizable=0;points=[];autosize=1;strokeColor=none;fillColor=none;" parent="1" vertex="1">
          <mxGeometry x="295" y="490" width="160" height="30" as="geometry" />
        </mxCell>
        <mxCell id="RvpLwpYk2StaqcjYeiUu-21" value="" style="endArrow=classic;html=1;rounded=0;" parent="1" edge="1">
          <mxGeometry width="50" height="50" relative="1" as="geometry">
            <mxPoint x="102" y="569" as="sourcePoint" />
            <mxPoint x="92" y="569" as="targetPoint" />
          </mxGeometry>
        </mxCell>
        <mxCell id="RvpLwpYk2StaqcjYeiUu-22" value="" style="endArrow=none;dashed=1;html=1;dashPattern=1 3;strokeWidth=2;rounded=0;" parent="1" edge="1">
          <mxGeometry width="50" height="50" relative="1" as="geometry">
            <mxPoint x="98" y="570" as="sourcePoint" />
            <mxPoint x="278" y="570" as="targetPoint" />
          </mxGeometry>
        </mxCell>
        <mxCell id="RvpLwpYk2StaqcjYeiUu-23" value="Información de materiales" style="text;html=1;align=center;verticalAlign=middle;resizable=0;points=[];autosize=1;strokeColor=none;fillColor=none;" parent="1" vertex="1">
          <mxGeometry x="108" y="540" width="160" height="30" as="geometry" />
        </mxCell>
        <mxCell id="RvpLwpYk2StaqcjYeiUu-24" value="" style="endArrow=classic;html=1;rounded=0;" parent="1" edge="1">
          <mxGeometry width="50" height="50" relative="1" as="geometry">
            <mxPoint x="90" y="635" as="sourcePoint" />
            <mxPoint x="280" y="635" as="targetPoint" />
          </mxGeometry>
        </mxCell>
        <mxCell id="RvpLwpYk2StaqcjYeiUu-25" value="Seleccionar materiales&lt;div&gt;&amp;nbsp;deseados&lt;/div&gt;" style="text;html=1;align=center;verticalAlign=middle;resizable=0;points=[];autosize=1;strokeColor=none;fillColor=none;" parent="1" vertex="1">
          <mxGeometry x="115" y="600" width="140" height="40" as="geometry" />
        </mxCell>
        <mxCell id="RvpLwpYk2StaqcjYeiUu-26" value="" style="endArrow=classic;html=1;rounded=0;" parent="1" edge="1">
          <mxGeometry width="50" height="50" relative="1" as="geometry">
            <mxPoint x="280" y="674.8299999999999" as="sourcePoint" />
            <mxPoint x="470" y="674.8299999999999" as="targetPoint" />
          </mxGeometry>
        </mxCell>
        <mxCell id="RvpLwpYk2StaqcjYeiUu-27" value="Enviar materiales seleccionados&lt;div&gt;añadirMaterialArmario()&lt;/div&gt;" style="text;html=1;align=center;verticalAlign=middle;resizable=0;points=[];autosize=1;strokeColor=none;fillColor=none;" parent="1" vertex="1">
          <mxGeometry x="280" y="637" width="190" height="41" as="geometry" />
        </mxCell>
        <mxCell id="RvpLwpYk2StaqcjYeiUu-28" value="" style="endArrow=classic;html=1;rounded=0;" parent="1" edge="1">
          <mxGeometry width="50" height="50" relative="1" as="geometry">
            <mxPoint x="290" y="725" as="sourcePoint" />
            <mxPoint x="280" y="725" as="targetPoint" />
          </mxGeometry>
        </mxCell>
        <mxCell id="RvpLwpYk2StaqcjYeiUu-29" value="" style="endArrow=none;dashed=1;html=1;dashPattern=1 3;strokeWidth=2;rounded=0;" parent="1" edge="1">
          <mxGeometry width="50" height="50" relative="1" as="geometry">
            <mxPoint x="290" y="725" as="sourcePoint" />
            <mxPoint x="470" y="725" as="targetPoint" />
          </mxGeometry>
        </mxCell>
        <mxCell id="RvpLwpYk2StaqcjYeiUu-30" value="Representación de armario&lt;div&gt;con material&lt;/div&gt;" style="text;html=1;align=center;verticalAlign=middle;resizable=0;points=[];autosize=1;strokeColor=none;fillColor=none;" parent="1" vertex="1">
          <mxGeometry x="290" y="685" width="170" height="40" as="geometry" />
        </mxCell>
        <mxCell id="RvpLwpYk2StaqcjYeiUu-31" value="" style="endArrow=classic;html=1;rounded=0;" parent="1" edge="1">
          <mxGeometry width="50" height="50" relative="1" as="geometry">
            <mxPoint x="103" y="760" as="sourcePoint" />
            <mxPoint x="93" y="760" as="targetPoint" />
          </mxGeometry>
        </mxCell>
        <mxCell id="RvpLwpYk2StaqcjYeiUu-32" value="" style="endArrow=none;dashed=1;html=1;dashPattern=1 3;strokeWidth=2;rounded=0;" parent="1" edge="1">
          <mxGeometry width="50" height="50" relative="1" as="geometry">
            <mxPoint x="103" y="760" as="sourcePoint" />
            <mxPoint x="283" y="760" as="targetPoint" />
          </mxGeometry>
        </mxCell>
        <mxCell id="RvpLwpYk2StaqcjYeiUu-33" value="Representación de armario&amp;nbsp;&lt;div&gt;con material&lt;/div&gt;" style="text;html=1;align=center;verticalAlign=middle;resizable=0;points=[];autosize=1;strokeColor=none;fillColor=none;" parent="1" vertex="1">
          <mxGeometry x="98" y="715" width="170" height="40" as="geometry" />
        </mxCell>
        <mxCell id="RvpLwpYk2StaqcjYeiUu-34" value="" style="endArrow=classic;html=1;rounded=0;" parent="1" edge="1">
          <mxGeometry width="50" height="50" relative="1" as="geometry">
            <mxPoint x="90" y="814" as="sourcePoint" />
            <mxPoint x="280" y="814" as="targetPoint" />
          </mxGeometry>
        </mxCell>
        <mxCell id="RvpLwpYk2StaqcjYeiUu-35" value="Confirmar cocina con armario&lt;div&gt;deseados&lt;/div&gt;" style="text;html=1;align=center;verticalAlign=middle;resizable=0;points=[];autosize=1;strokeColor=none;fillColor=none;" parent="1" vertex="1">
          <mxGeometry x="98" y="774" width="180" height="40" as="geometry" />
        </mxCell>
        <mxCell id="RvpLwpYk2StaqcjYeiUu-36" value="" style="endArrow=classic;html=1;rounded=0;" parent="1" edge="1">
          <mxGeometry width="50" height="50" relative="1" as="geometry">
            <mxPoint x="280" y="830" as="sourcePoint" />
            <mxPoint x="470" y="830" as="targetPoint" />
          </mxGeometry>
        </mxCell>
        <mxCell id="RvpLwpYk2StaqcjYeiUu-37" value="Enviar armario con materiales&lt;div&gt;deseados&lt;/div&gt;&lt;div&gt;guardarArmario()&lt;/div&gt;" style="text;html=1;align=center;verticalAlign=middle;resizable=0;points=[];autosize=1;strokeColor=none;fillColor=none;" parent="1" vertex="1">
          <mxGeometry x="290" y="779" width="177" height="55" as="geometry" />
        </mxCell>
        <mxCell id="RvpLwpYk2StaqcjYeiUu-40" value="" style="endArrow=classic;html=1;rounded=0;" parent="1" edge="1">
          <mxGeometry width="50" height="50" relative="1" as="geometry">
            <mxPoint x="280" y="289.83" as="sourcePoint" />
            <mxPoint x="470" y="289.83" as="targetPoint" />
          </mxGeometry>
        </mxCell>
        <mxCell id="RvpLwpYk2StaqcjYeiUu-41" value="Pedir información de armario&lt;div&gt;buscarTodosProductos()&lt;/div&gt;" style="text;html=1;align=center;verticalAlign=middle;resizable=0;points=[];autosize=1;strokeColor=none;fillColor=none;" parent="1" vertex="1">
          <mxGeometry x="289" y="252" width="172" height="41" as="geometry" />
        </mxCell>
        <mxCell id="RvpLwpYk2StaqcjYeiUu-64" value="" style="endArrow=classic;html=1;rounded=0;" parent="1" edge="1">
          <mxGeometry width="50" height="50" relative="1" as="geometry">
            <mxPoint x="290" y="320" as="sourcePoint" />
            <mxPoint x="280" y="320" as="targetPoint" />
          </mxGeometry>
        </mxCell>
        <mxCell id="RvpLwpYk2StaqcjYeiUu-65" value="" style="endArrow=none;dashed=1;html=1;dashPattern=1 3;strokeWidth=2;rounded=0;" parent="1" edge="1">
          <mxGeometry width="50" height="50" relative="1" as="geometry">
            <mxPoint x="290" y="320" as="sourcePoint" />
            <mxPoint x="470" y="320" as="targetPoint" />
          </mxGeometry>
        </mxCell>
        <mxCell id="RvpLwpYk2StaqcjYeiUu-66" value="Información de armarios" style="text;html=1;align=center;verticalAlign=middle;resizable=0;points=[];autosize=1;strokeColor=none;fillColor=none;" parent="1" vertex="1">
          <mxGeometry x="300" y="290" width="150" height="30" as="geometry" />
        </mxCell>
        <mxCell id="RvpLwpYk2StaqcjYeiUu-72" value="" style="endArrow=classic;html=1;rounded=0;" parent="1" edge="1">
          <mxGeometry width="50" height="50" relative="1" as="geometry">
            <mxPoint x="100" y="370" as="sourcePoint" />
            <mxPoint x="90" y="370" as="targetPoint" />
          </mxGeometry>
        </mxCell>
        <mxCell id="RvpLwpYk2StaqcjYeiUu-73" value="" style="endArrow=none;dashed=1;html=1;dashPattern=1 3;strokeWidth=2;rounded=0;" parent="1" edge="1">
          <mxGeometry width="50" height="50" relative="1" as="geometry">
            <mxPoint x="100" y="370" as="sourcePoint" />
            <mxPoint x="280" y="370" as="targetPoint" />
          </mxGeometry>
        </mxCell>
        <mxCell id="RvpLwpYk2StaqcjYeiUu-74" value="Información de armarios" style="text;html=1;align=center;verticalAlign=middle;resizable=0;points=[];autosize=1;strokeColor=none;fillColor=none;" parent="1" vertex="1">
          <mxGeometry x="110" y="340" width="150" height="30" as="geometry" />
        </mxCell>
        <mxCell id="RvpLwpYk2StaqcjYeiUu-75" value="" style="endArrow=classic;html=1;rounded=0;" parent="1" edge="1">
          <mxGeometry width="50" height="50" relative="1" as="geometry">
            <mxPoint x="88" y="410" as="sourcePoint" />
            <mxPoint x="278" y="410" as="targetPoint" />
          </mxGeometry>
        </mxCell>
        <mxCell id="RvpLwpYk2StaqcjYeiUu-76" value="Seleccionar armario&lt;div&gt;&amp;nbsp;deseado&lt;/div&gt;" style="text;html=1;align=center;verticalAlign=middle;resizable=0;points=[];autosize=1;strokeColor=none;fillColor=none;" parent="1" vertex="1">
          <mxGeometry x="123" y="370" width="130" height="40" as="geometry" />
        </mxCell>
      </root>
    </mxGraphModel>
  </diagram>
</mxfile>
